STARTFONT 2.1
COMMENT Copyright (C) 1990-1991 EWT Consulting
COMMENT Portions Copyright (C) 1994-1995 Cronyx Ltd.
COMMENT Changes Copyright (C) 1996-1997 by Andrey A. Chernov, Moscow, Russia.
COMMENT Modified by Serge Vakulenko, <vak@cronyx.ru>
COMMENT This software may be used, modified, copied, distributed, and sold,
COMMENT in both source and binary form provided that the copyright
COMMENT and these terms are retained. Under no circumstances is the author
COMMENT responsible for the proper functioning of this software, nor does
COMMENT the author assume any responsibility for damages incurred with its use.
COMMENT $XFree86: xc/fonts/bdf/cyrillic/crox2hbo.bdf,v 3.2.4.1 1998/02/01 16:03:36 robin Exp $
FONT -Cronyx-Helvetica-Bold-O-Normal--14-100-100-100-P-56-KOI8-R
SIZE 10 96 96
FONTBOUNDINGBOX 19 15 -1 -3
STARTPROPERTIES 20
DEFAULT_CHAR 32
FONT_ASCENT 13
FONT_DESCENT 3
SPACING "P"
FONTNAME_REGISTRY ""
FOUNDRY "Cronyx"
FAMILY_NAME "Helvetica"
WEIGHT_NAME "Bold"
SLANT "O"
SETWIDTH_NAME "Normal"
ADD_STYLE_NAME ""
AVERAGE_WIDTH 56
CHARSET_REGISTRY "KOI8"
CHARSET_ENCODING "R"
PIXEL_SIZE 14
POINT_SIZE 100
RESOLUTION_X 100
RESOLUTION_Y 100
COPYRIGHT "Copyright (C) 1990, 1991 EWT Consulting, Portions Copyright (C) 1994 Cronyx Ltd., Portions Copyright (C) 1996-1997 by Andrey A. Chernov, Moscow, Russia."
_XMBDFED_INFO "Edited with xmbdfed 2.7."
ENDPROPERTIES
CHARS 165
STARTCHAR space
ENCODING 32
SWIDTH 308 0
DWIDTH 4 0
BBX 0 0 -1 0
BITMAP
ENDCHAR
STARTCHAR exclam
ENCODING 33
SWIDTH 400 0
DWIDTH 4 0
BBX 5 10 0 0
BITMAP
18
18
30
30
30
60
60
60
00
C0
ENDCHAR
STARTCHAR quotedbl
ENCODING 34
SWIDTH 1500 0
DWIDTH 6 0
BBX 5 4 0 6
BITMAP
78
78
F0
F0
ENDCHAR
STARTCHAR numbersign
ENCODING 35
SWIDTH 800 0
DWIDTH 8 0
BBX 11 10 -1 0
BITMAP
03C0
03C0
0780
1FC0
0F00
1E00
7F00
3C00
7800
7800
ENDCHAR
STARTCHAR dollar
ENCODING 36
SWIDTH 727 0
DWIDTH 8 0
BBX 9 11 0 -1
BITMAP
0600
0F00
1F80
3F00
3C00
1E00
1E00
1E00
7E00
7800
3000
ENDCHAR
STARTCHAR percent
ENCODING 37
SWIDTH 1300 0
DWIDTH 13 0
BBX 14 10 0 0
BITMAP
0E00
1B18
3660
1CC0
0180
0600
0CE0
19B0
6360
01C0
ENDCHAR
STARTCHAR ampersand
ENCODING 38
SWIDTH 1000 0
DWIDTH 10 0
BBX 11 10 0 0
BITMAP
0700
0D80
1B00
1B00
0E00
3C00
6600
6780
C600
7F00
ENDCHAR
STARTCHAR quoteright
ENCODING 39
SWIDTH 1000 0
DWIDTH 4 0
BBX 3 4 0 6
BITMAP
60
60
C0
C0
ENDCHAR
STARTCHAR parenleft
ENCODING 40
SWIDTH 385 0
DWIDTH 5 0
BBX 8 13 0 -3
BITMAP
03
06
0C
18
18
30
30
30
60
60
30
60
30
ENDCHAR
STARTCHAR parenright
ENCODING 41
SWIDTH 385 0
DWIDTH 5 0
BBX 8 13 -1 -3
BITMAP
0C
06
0C
06
06
0C
0C
0C
18
18
30
60
C0
ENDCHAR
STARTCHAR asterisk
ENCODING 42
SWIDTH 1500 0
DWIDTH 6 0
BBX 7 4 -1 6
BITMAP
18
7E
78
FC
ENDCHAR
STARTCHAR plus
ENCODING 43
SWIDTH 1600 0
DWIDTH 8 0
BBX 7 5 0 2
BITMAP
18
18
7E
30
30
ENDCHAR
STARTCHAR comma
ENCODING 44
SWIDTH 2000 0
DWIDTH 4 0
BBX 3 2 -1 -1
BITMAP
60
C0
ENDCHAR
STARTCHAR minus
ENCODING 45
SWIDTH 5000 0
DWIDTH 5 0
BBX 5 1 -1 4
BITMAP
F8
ENDCHAR
STARTCHAR period
ENCODING 46
SWIDTH 4000 0
DWIDTH 4 0
BBX 2 1 0 0
BITMAP
C0
ENDCHAR
STARTCHAR slash
ENCODING 47
SWIDTH 417 0
DWIDTH 5 0
BBX 9 12 -1 -2
BITMAP
0180
0300
0300
0600
0C00
0C00
1800
3000
3000
6000
C000
C000
ENDCHAR
STARTCHAR zero
ENCODING 48
SWIDTH 800 0
DWIDTH 8 0
BBX 9 10 0 0
BITMAP
0F00
1980
3300
3300
3300
6600
6600
6600
CC00
7800
ENDCHAR
STARTCHAR one
ENCODING 49
SWIDTH 800 0
DWIDTH 8 0
BBX 7 10 0 0
BITMAP
06
1E
0C
0C
0C
18
18
18
30
30
ENDCHAR
STARTCHAR two
ENCODING 50
SWIDTH 800 0
DWIDTH 8 0
BBX 9 10 0 0
BITMAP
0F00
1980
3300
0300
0600
1800
3000
6000
C000
FC00
ENDCHAR
STARTCHAR three
ENCODING 51
SWIDTH 800 0
DWIDTH 8 0
BBX 9 10 0 0
BITMAP
0F00
1980
0300
0300
0E00
0600
0600
0600
CC00
7800
ENDCHAR
STARTCHAR four
ENCODING 52
SWIDTH 800 0
DWIDTH 8 0
BBX 9 10 0 0
BITMAP
0180
0380
0F00
0F00
1B00
6600
7E00
0600
0C00
0C00
ENDCHAR
STARTCHAR five
ENCODING 53
SWIDTH 800 0
DWIDTH 8 0
BBX 9 10 0 0
BITMAP
1F80
1800
3000
3000
3E00
6600
0600
0600
CC00
7800
ENDCHAR
STARTCHAR six
ENCODING 54
SWIDTH 800 0
DWIDTH 8 0
BBX 9 10 0 0
BITMAP
0F00
1980
3000
3000
3E00
7600
6600
6600
CC00
7800
ENDCHAR
STARTCHAR seven
ENCODING 55
SWIDTH 800 0
DWIDTH 8 0
BBX 9 10 0 0
BITMAP
1F80
0180
0300
0600
0600
1800
1800
3000
6000
6000
ENDCHAR
STARTCHAR eight
ENCODING 56
SWIDTH 800 0
DWIDTH 8 0
BBX 9 10 0 0
BITMAP
0F00
1980
3300
3300
1E00
6600
6600
6600
CC00
7800
ENDCHAR
STARTCHAR nine
ENCODING 57
SWIDTH 800 0
DWIDTH 8 0
BBX 9 10 0 0
BITMAP
0F00
1980
3300
3300
3700
3E00
0600
0600
CC00
7800
ENDCHAR
STARTCHAR colon
ENCODING 58
SWIDTH 571 0
DWIDTH 4 0
BBX 4 7 0 0
BITMAP
30
00
00
00
00
00
C0
ENDCHAR
STARTCHAR semicolon
ENCODING 59
SWIDTH 500 0
DWIDTH 4 0
BBX 5 8 -1 -1
BITMAP
18
00
00
00
00
00
60
C0
ENDCHAR
STARTCHAR less
ENCODING 60
SWIDTH 1143 0
DWIDTH 8 0
BBX 8 7 0 1
BITMAP
07
0E
38
70
38
38
1C
ENDCHAR
STARTCHAR equal
ENCODING 61
SWIDTH 2667 0
DWIDTH 8 0
BBX 7 3 0 3
BITMAP
7E
00
FC
ENDCHAR
STARTCHAR greater
ENCODING 62
SWIDTH 1143 0
DWIDTH 8 0
BBX 8 7 0 1
BITMAP
38
1C
1C
0E
1C
70
E0
ENDCHAR
STARTCHAR question
ENCODING 63
SWIDTH 800 0
DWIDTH 8 0
BBX 9 10 0 0
BITMAP
0F00
1980
3300
0300
0600
1800
1800
1800
0000
3000
ENDCHAR
STARTCHAR at
ENCODING 64
SWIDTH 1250 0
DWIDTH 15 0
BBX 17 12 0 -1
BITMAP
00F800
071C00
0C0600
0C0600
31F600
333600
333600
66CC00
33F800
300000
387000
0FC000
ENDCHAR
STARTCHAR A
ENCODING 65
SWIDTH 1000 0
DWIDTH 10 0
BBX 13 10 -1 0
BITMAP
0180
0180
0780
0780
0CC0
1980
3FC0
30C0
C0C0
C0C0
ENDCHAR
STARTCHAR B
ENCODING 66
SWIDTH 1000 0
DWIDTH 10 0
BBX 11 10 0 0
BITMAP
1FC0
1860
30C0
30C0
3F80
6180
6180
6180
C300
FE00
ENDCHAR
STARTCHAR C
ENCODING 67
SWIDTH 1000 0
DWIDTH 10 0
BBX 12 10 0 0
BITMAP
07C0
0C60
3060
3000
3000
6000
6000
60C0
6300
3E00
ENDCHAR
STARTCHAR D
ENCODING 68
SWIDTH 1100 0
DWIDTH 11 0
BBX 12 10 0 0
BITMAP
1FC0
1860
3060
3060
3060
60C0
60C0
60C0
C300
FE00
ENDCHAR
STARTCHAR E
ENCODING 69
SWIDTH 1000 0
DWIDTH 10 0
BBX 11 10 0 0
BITMAP
1FE0
1800
3000
3000
3F80
6000
6000
6000
C000
FF00
ENDCHAR
STARTCHAR F
ENCODING 70
SWIDTH 900 0
DWIDTH 9 0
BBX 11 10 0 0
BITMAP
1FE0
1800
3000
3000
3F80
6000
6000
6000
C000
C000
ENDCHAR
STARTCHAR G
ENCODING 71
SWIDTH 1100 0
DWIDTH 11 0
BBX 12 10 0 0
BITMAP
07C0
0C60
3060
3000
3000
63C0
60C0
60C0
6380
3F80
ENDCHAR
STARTCHAR H
ENCODING 72
SWIDTH 1100 0
DWIDTH 11 0
BBX 12 10 0 0
BITMAP
1830
1830
3060
3060
3FE0
60C0
60C0
60C0
C180
C180
ENDCHAR
STARTCHAR I
ENCODING 73
SWIDTH 400 0
DWIDTH 4 0
BBX 5 10 0 0
BITMAP
18
18
30
30
30
60
60
60
C0
C0
ENDCHAR
STARTCHAR J
ENCODING 74
SWIDTH 800 0
DWIDTH 8 0
BBX 9 10 0 0
BITMAP
0180
0180
0300
0300
0300
0600
0600
6600
CC00
7800
ENDCHAR
STARTCHAR K
ENCODING 75
SWIDTH 900 0
DWIDTH 9 0
BBX 11 10 0 0
BITMAP
18C0
1980
3600
3C00
3800
7800
6C00
6600
C600
C300
ENDCHAR
STARTCHAR L
ENCODING 76
SWIDTH 800 0
DWIDTH 8 0
BBX 10 10 0 0
BITMAP
1800
1800
3000
3000
3000
6000
6000
6000
C000
FE00
ENDCHAR
STARTCHAR M
ENCODING 77
SWIDTH 1200 0
DWIDTH 12 0
BBX 13 10 0 0
BITMAP
1818
1818
3870
3870
3CF0
79E0
6F60
6F60
CCC0
CCC0
ENDCHAR
STARTCHAR N
ENCODING 78
SWIDTH 1100 0
DWIDTH 11 0
BBX 12 10 0 0
BITMAP
1830
1C30
3C60
3C60
3660
66C0
63C0
63C0
C380
C180
ENDCHAR
STARTCHAR O
ENCODING 79
SWIDTH 1100 0
DWIDTH 11 0
BBX 12 10 0 0
BITMAP
07C0
0C60
3060
3060
3060
60C0
60C0
60C0
6300
3E00
ENDCHAR
STARTCHAR P
ENCODING 80
SWIDTH 1000 0
DWIDTH 10 0
BBX 12 10 0 0
BITMAP
1FC0
1860
3060
3060
30C0
7F00
6000
6000
C000
C000
ENDCHAR
STARTCHAR Q
ENCODING 81
SWIDTH 1100 0
DWIDTH 11 0
BBX 12 10 0 0
BITMAP
07C0
0C60
3060
3060
3060
60C0
60C0
63C0
6300
3F80
ENDCHAR
STARTCHAR R
ENCODING 82
SWIDTH 1100 0
DWIDTH 11 0
BBX 13 10 0 0
BITMAP
1FC0
1860
3060
3060
30C0
7F80
60C0
60C0
C180
C0C0
ENDCHAR
STARTCHAR S
ENCODING 83
SWIDTH 1000 0
DWIDTH 10 0
BBX 11 10 0 0
BITMAP
0FC0
1860
30C0
3000
1E00
0700
0180
6180
C300
7E00
ENDCHAR
STARTCHAR T
ENCODING 84
SWIDTH 1000 0
DWIDTH 10 0
BBX 13 10 -1 0
BITMAP
1FF8
0180
0300
0300
0300
0600
0600
0600
0C00
0C00
ENDCHAR
STARTCHAR U
ENCODING 85
SWIDTH 1100 0
DWIDTH 11 0
BBX 12 10 0 0
BITMAP
1830
1830
3060
3060
3060
60C0
60C0
60C0
6300
3E00
ENDCHAR
STARTCHAR V
ENCODING 86
SWIDTH 1000 0
DWIDTH 10 0
BBX 13 10 -1 0
BITMAP
1818
1818
1860
1860
0CC0
1980
0F00
0F00
0C00
0C00
ENDCHAR
STARTCHAR W
ENCODING 87
SWIDTH 1400 0
DWIDTH 14 0
BBX 17 10 -1 0
BITMAP
186180
186180
30C300
19E600
19E600
1E7800
1E7800
1E7800
186000
186000
ENDCHAR
STARTCHAR X
ENCODING 88
SWIDTH 900 0
DWIDTH 9 0
BBX 12 10 -1 0
BITMAP
1830
1830
18C0
0D80
0700
0E00
1B00
3180
C180
C180
ENDCHAR
STARTCHAR Y
ENCODING 89
SWIDTH 1000 0
DWIDTH 10 0
BBX 13 10 -1 0
BITMAP
1818
1818
1860
0CC0
0780
0600
0600
0600
0C00
0C00
ENDCHAR
STARTCHAR Z
ENCODING 90
SWIDTH 900 0
DWIDTH 9 0
BBX 10 10 0 0
BITMAP
1FC0
00C0
0300
0300
0600
1800
3000
3000
C000
FE00
ENDCHAR
STARTCHAR bracketleft
ENCODING 91
SWIDTH 385 0
DWIDTH 5 0
BBX 8 13 0 -3
BITMAP
0F
0C
18
18
18
30
30
30
60
60
60
C0
F0
ENDCHAR
STARTCHAR backslash
ENCODING 92
SWIDTH 417 0
DWIDTH 5 0
BBX 9 12 -1 -2
BITMAP
0C00
1800
1800
0C00
1800
1800
0C00
1800
1800
0C00
1800
1800
ENDCHAR
STARTCHAR bracketright
ENCODING 93
SWIDTH 385 0
DWIDTH 5 0
BBX 8 13 -1 -3
BITMAP
0F
03
06
06
06
0C
0C
0C
18
18
18
30
F0
ENDCHAR
STARTCHAR asciicircum
ENCODING 94
SWIDTH 2667 0
DWIDTH 8 0
BBX 7 3 0 8
BITMAP
18
78
CC
ENDCHAR
STARTCHAR underscore
ENCODING 95
SWIDTH 8000 0
DWIDTH 8 0
BBX 8 1 -1 -2
BITMAP
FF
ENDCHAR
STARTCHAR quoteleft
ENCODING 96
SWIDTH 2500 0
DWIDTH 5 0
BBX 3 2 0 8
BITMAP
C0
60
ENDCHAR
STARTCHAR a
ENCODING 97
SWIDTH 1286 0
DWIDTH 9 0
BBX 10 7 0 0
BITMAP
1F00
3180
3F00
6300
6300
C600
7F00
ENDCHAR
STARTCHAR b
ENCODING 98
SWIDTH 900 0
DWIDTH 9 0
BBX 10 10 0 0
BITMAP
1800
1800
3000
3F00
3980
6300
6300
6300
E600
FC00
ENDCHAR
STARTCHAR c
ENCODING 99
SWIDTH 1143 0
DWIDTH 8 0
BBX 9 7 0 0
BITMAP
1F00
3180
6000
6000
6000
C600
7C00
ENDCHAR
STARTCHAR d
ENCODING 100
SWIDTH 900 0
DWIDTH 9 0
BBX 10 10 0 0
BITMAP
00C0
00C0
0180
1F80
3380
6300
6300
6300
CE00
7E00
ENDCHAR
STARTCHAR e
ENCODING 101
SWIDTH 1286 0
DWIDTH 9 0
BBX 9 7 0 0
BITMAP
1F00
3180
6300
7F00
6000
C600
7C00
ENDCHAR
STARTCHAR f
ENCODING 102
SWIDTH 400 0
DWIDTH 4 0
BBX 7 10 -1 0
BITMAP
06
0C
18
3C
18
30
30
30
60
60
ENDCHAR
STARTCHAR g
ENCODING 103
SWIDTH 900 0
DWIDTH 9 0
BBX 10 10 0 -3
BITMAP
0FC0
19C0
3180
3180
3180
6700
3F00
0300
0600
7C00
ENDCHAR
STARTCHAR h
ENCODING 104
SWIDTH 800 0
DWIDTH 8 0
BBX 9 10 0 0
BITMAP
1800
1800
3000
3E00
3B00
6600
6600
6600
CC00
CC00
ENDCHAR
STARTCHAR i
ENCODING 105
SWIDTH 400 0
DWIDTH 4 0
BBX 5 10 0 0
BITMAP
18
00
00
30
30
60
60
60
C0
C0
ENDCHAR
STARTCHAR j
ENCODING 106
SWIDTH 308 0
DWIDTH 4 0
BBX 7 13 -1 -3
BITMAP
06
00
00
0C
0C
18
18
18
30
30
30
60
C0
ENDCHAR
STARTCHAR k
ENCODING 107
SWIDTH 800 0
DWIDTH 8 0
BBX 10 10 0 0
BITMAP
1800
1800
3000
3300
3600
7800
7800
6C00
CC00
C600
ENDCHAR
STARTCHAR l
ENCODING 108
SWIDTH 400 0
DWIDTH 4 0
BBX 5 10 0 0
BITMAP
18
18
30
30
30
60
60
60
C0
C0
ENDCHAR
STARTCHAR m
ENCODING 109
SWIDTH 1714 0
DWIDTH 12 0
BBX 12 7 0 0
BITMAP
3EE0
3BB0
6660
6660
6660
CCC0
CCC0
ENDCHAR
STARTCHAR n
ENCODING 110
SWIDTH 1143 0
DWIDTH 8 0
BBX 8 7 0 0
BITMAP
3E
3B
66
66
66
CC
CC
ENDCHAR
STARTCHAR o
ENCODING 111
SWIDTH 1286 0
DWIDTH 9 0
BBX 9 7 0 0
BITMAP
1F00
3180
6300
6300
6300
C600
7C00
ENDCHAR
STARTCHAR p
ENCODING 112
SWIDTH 900 0
DWIDTH 9 0
BBX 10 10 0 -3
BITMAP
1F80
1CC0
3180
3180
3180
7300
7E00
6000
C000
C000
ENDCHAR
STARTCHAR q
ENCODING 113
SWIDTH 900 0
DWIDTH 9 0
BBX 10 10 0 -3
BITMAP
0FC0
19C0
3180
3180
3180
6700
3F00
0300
0600
0600
ENDCHAR
STARTCHAR r
ENCODING 114
SWIDTH 714 0
DWIDTH 5 0
BBX 6 7 0 0
BITMAP
3C
38
60
60
60
C0
C0
ENDCHAR
STARTCHAR s
ENCODING 115
SWIDTH 1143 0
DWIDTH 8 0
BBX 8 7 0 0
BITMAP
1E
33
60
3C
06
CC
78
ENDCHAR
STARTCHAR t
ENCODING 116
SWIDTH 444 0
DWIDTH 4 0
BBX 7 9 -1 0
BITMAP
0C
18
3C
18
30
30
30
60
30
ENDCHAR
STARTCHAR u
ENCODING 117
SWIDTH 1143 0
DWIDTH 8 0
BBX 8 7 0 0
BITMAP
33
33
66
66
66
DC
7C
ENDCHAR
STARTCHAR v
ENCODING 118
SWIDTH 1143 0
DWIDTH 8 0
BBX 10 7 -1 0
BITMAP
30C0
30C0
3300
3300
1E00
3C00
1800
ENDCHAR
STARTCHAR w
ENCODING 119
SWIDTH 1429 0
DWIDTH 10 0
BBX 12 7 -1 0
BITMAP
3330
3330
3FC0
3FC0
3FC0
3300
3300
ENDCHAR
STARTCHAR x
ENCODING 120
SWIDTH 1000 0
DWIDTH 7 0
BBX 9 7 -1 0
BITMAP
3180
1B00
1C00
1C00
1C00
6C00
C600
ENDCHAR
STARTCHAR y
ENCODING 121
SWIDTH 800 0
DWIDTH 8 0
BBX 11 10 -1 -3
BITMAP
1860
1860
1980
1980
0F00
1E00
0C00
0C00
3000
E000
ENDCHAR
STARTCHAR z
ENCODING 122
SWIDTH 1000 0
DWIDTH 7 0
BBX 7 7 0 0
BITMAP
3E
06
18
30
30
C0
F8
ENDCHAR
STARTCHAR braceleft
ENCODING 123
SWIDTH 462 0
DWIDTH 6 0
BBX 10 13 -1 -3
BITMAP
01C0
0300
0600
0600
0600
0C00
3800
0C00
1800
1800
1800
3000
1C00
ENDCHAR
STARTCHAR bar
ENCODING 124
SWIDTH 308 0
DWIDTH 4 0
BBX 6 13 0 -3
BITMAP
0C
0C
18
18
18
30
30
30
60
60
60
C0
C0
ENDCHAR
STARTCHAR braceright
ENCODING 125
SWIDTH 462 0
DWIDTH 6 0
BBX 10 13 -1 -3
BITMAP
0E00
0300
0600
0600
0600
0C00
0700
0C00
1800
1800
1800
3000
E000
ENDCHAR
STARTCHAR asciitilde
ENCODING 126
SWIDTH 3333 0
DWIDTH 10 0
BBX 9 3 0 7
BITMAP
3980
DB00
CE00
ENDCHAR
STARTCHAR nbsp
ENCODING 154
SWIDTH 308 0
DWIDTH 4 0
BBX 0 0 -1 0
BITMAP
ENDCHAR
STARTCHAR degree
ENCODING 156
SWIDTH 1667 0
DWIDTH 5 0
BBX 5 3 0 7
BITMAP
30
F0
60
ENDCHAR
STARTCHAR twosuperior
ENCODING 157
SWIDTH 1000 0
DWIDTH 5 0
BBX 6 5 -1 5
BITMAP
38
6C
18
60
F8
ENDCHAR
STARTCHAR cyr-yo
ENCODING 163
SWIDTH 1000 0
DWIDTH 9 0
BBX 10 9 0 0
BITMAP
0D80
0000
1F00
3180
6300
7F00
6000
C600
7C00
ENDCHAR
STARTCHAR cyr-Yo
ENCODING 179
SWIDTH 833 0
DWIDTH 10 0
BBX 12 12 0 0
BITMAP
0660
0000
1FE0
1800
3000
3000
3F80
6000
6000
6000
C000
FF00
ENDCHAR
STARTCHAR copyright
ENCODING 191
SWIDTH 1125 0
DWIDTH 9 0
BBX 11 8 -1 2
BITMAP
0F80
18C0
37E0
78C0
78C0
6FC0
6300
3E00
ENDCHAR
STARTCHAR cyr-yu
ENCODING 192
SWIDTH 1429 0
DWIDTH 10 0
BBX 10 7 0 0
BITMAP
3780
3CC0
7980
7980
7980
F300
DE00
ENDCHAR
STARTCHAR cyr-a
ENCODING 193
SWIDTH 1286 0
DWIDTH 9 0
BBX 10 7 0 0
BITMAP
1F00
3180
3F00
6300
6300
C600
7F00
ENDCHAR
STARTCHAR cyr-be
ENCODING 194
SWIDTH 900 0
DWIDTH 9 0
BBX 10 10 0 0
BITMAP
00C0
0F80
3000
3F00
3180
6300
6300
6300
C600
7C00
ENDCHAR
STARTCHAR cyr-tse
ENCODING 195
SWIDTH 889 0
DWIDTH 8 0
BBX 10 9 0 -2
BITMAP
1980
3300
3300
3300
6600
6600
7F00
0600
0600
ENDCHAR
STARTCHAR cyr-de
ENCODING 196
SWIDTH 1222 0
DWIDTH 11 0
BBX 12 9 0 -2
BITMAP
07E0
0CC0
0CC0
0CC0
1980
3180
7FC0
C180
C180
ENDCHAR
STARTCHAR cyr-ie
ENCODING 197
SWIDTH 1286 0
DWIDTH 9 0
BBX 9 7 0 0
BITMAP
1F00
3180
6300
7F00
6000
C600
7C00
ENDCHAR
STARTCHAR cyr-ef
ENCODING 198
SWIDTH 909 0
DWIDTH 10 0
BBX 11 11 0 -3
BITMAP
0300
0FC0
1B60
36C0
36C0
36C0
6D80
3F00
0C00
1800
1800
ENDCHAR
STARTCHAR cyr-ghe
ENCODING 199
SWIDTH 1143 0
DWIDTH 8 0
BBX 8 7 0 0
BITMAP
3F
30
60
60
60
C0
C0
ENDCHAR
STARTCHAR cyr-kha
ENCODING 200
SWIDTH 1000 0
DWIDTH 7 0
BBX 9 7 -1 0
BITMAP
3180
1B00
1C00
1C00
1C00
6C00
C600
ENDCHAR
STARTCHAR cyr-i
ENCODING 201
SWIDTH 1286 0
DWIDTH 9 0
BBX 9 7 0 0
BITMAP
3180
3180
6700
6F00
7B00
E600
C600
ENDCHAR
STARTCHAR cyr-i-short
ENCODING 202
SWIDTH 1000 0
DWIDTH 9 0
BBX 10 9 0 0
BITMAP
0D80
0E00
3180
3180
6700
6F00
7B00
E600
C600
ENDCHAR
STARTCHAR cyr-ka
ENCODING 203
SWIDTH 1143 0
DWIDTH 8 0
BBX 9 7 0 0
BITMAP
3300
3600
7800
7800
6C00
CC00
C600
ENDCHAR
STARTCHAR cyr-el
ENCODING 204
SWIDTH 1286 0
DWIDTH 9 0
BBX 9 7 0 0
BITMAP
1F80
1980
3300
3300
3300
6600
C600
ENDCHAR
STARTCHAR cyr-em
ENCODING 205
SWIDTH 1429 0
DWIDTH 10 0
BBX 10 7 0 0
BITMAP
30C0
39C0
7F80
6D80
6180
C300
C300
ENDCHAR
STARTCHAR cyr-en
ENCODING 206
SWIDTH 1143 0
DWIDTH 8 0
BBX 8 7 0 0
BITMAP
33
33
66
7E
66
CC
CC
ENDCHAR
STARTCHAR cyr-o
ENCODING 207
SWIDTH 1286 0
DWIDTH 9 0
BBX 9 7 0 0
BITMAP
1F00
3180
6300
6300
6300
C600
7C00
ENDCHAR
STARTCHAR cyr-pe
ENCODING 208
SWIDTH 1143 0
DWIDTH 8 0
BBX 8 7 0 0
BITMAP
3F
33
66
66
66
CC
CC
ENDCHAR
STARTCHAR cyr-ya
ENCODING 209
SWIDTH 1286 0
DWIDTH 9 0
BBX 9 7 0 0
BITMAP
1F80
3180
6300
6300
3F00
6600
C600
ENDCHAR
STARTCHAR cyr-er
ENCODING 210
SWIDTH 900 0
DWIDTH 9 0
BBX 10 10 0 -3
BITMAP
1F80
1CC0
3180
3180
3180
7300
7E00
6000
C000
C000
ENDCHAR
STARTCHAR cyr-es
ENCODING 211
SWIDTH 1143 0
DWIDTH 8 0
BBX 9 7 0 0
BITMAP
1F00
3180
6000
6000
6000
C600
7C00
ENDCHAR
STARTCHAR cyr-te
ENCODING 212
SWIDTH 1429 0
DWIDTH 10 0
BBX 10 7 0 0
BITMAP
3FC0
0600
0C00
0C00
0C00
1800
1800
ENDCHAR
STARTCHAR cyr-u
ENCODING 213
SWIDTH 800 0
DWIDTH 8 0
BBX 11 10 -1 -3
BITMAP
1860
1860
1980
1980
0F00
1E00
0C00
0C00
3000
E000
ENDCHAR
STARTCHAR cyr-zhe
ENCODING 214
SWIDTH 1714 0
DWIDTH 12 0
BBX 14 7 -1 0
BITMAP
1998
0DB0
0FC0
0FC0
1B60
6660
C630
ENDCHAR
STARTCHAR cyr-ve
ENCODING 215
SWIDTH 1286 0
DWIDTH 9 0
BBX 9 7 0 0
BITMAP
3F00
3180
6300
7F00
6300
C600
FC00
ENDCHAR
STARTCHAR cyr-ierik
ENCODING 216
SWIDTH 1286 0
DWIDTH 9 0
BBX 9 7 0 0
BITMAP
3000
3000
7E00
6300
6300
C600
FC00
ENDCHAR
STARTCHAR cyr-iery
ENCODING 217
SWIDTH 1571 0
DWIDTH 11 0
BBX 11 7 0 0
BITMAP
3060
3060
7EC0
63C0
63C0
C780
FD80
ENDCHAR
STARTCHAR cyr-z
ENCODING 218
SWIDTH 1286 0
DWIDTH 9 0
BBX 9 7 0 0
BITMAP
1F00
3180
0300
1E00
0300
C600
7C00
ENDCHAR
STARTCHAR cyr-sha
ENCODING 219
SWIDTH 1714 0
DWIDTH 12 0
BBX 12 7 0 0
BITMAP
3330
3330
6660
6660
6660
CCC0
FFC0
ENDCHAR
STARTCHAR cyr-e-rev
ENCODING 220
SWIDTH 1286 0
DWIDTH 9 0
BBX 9 7 0 0
BITMAP
1F00
3180
0300
1F00
0300
C600
7C00
ENDCHAR
STARTCHAR cyr-shcha
ENCODING 221
SWIDTH 1333 0
DWIDTH 12 0
BBX 14 9 0 -2
BITMAP
1998
3330
3330
3330
6660
6660
7FF0
0060
0060
ENDCHAR
STARTCHAR cyr-che
ENCODING 222
SWIDTH 1143 0
DWIDTH 8 0
BBX 8 7 0 0
BITMAP
33
33
66
3E
06
0C
0C
ENDCHAR
STARTCHAR cyr-ier
ENCODING 223
SWIDTH 1429 0
DWIDTH 10 0
BBX 11 7 -1 0
BITMAP
3C00
0C00
1F80
18C0
18C0
3180
3F00
ENDCHAR
STARTCHAR cyr-Yu
ENCODING 224
SWIDTH 1200 0
DWIDTH 12 0
BBX 13 10 0 0
BITMAP
19E0
1B30
3C30
3C30
3C30
7860
7860
7860
D980
CF00
ENDCHAR
STARTCHAR cyr-A
ENCODING 225
SWIDTH 1000 0
DWIDTH 10 0
BBX 13 10 -1 0
BITMAP
0180
0180
0780
0780
0CC0
1980
3FC0
30C0
C0C0
C0C0
ENDCHAR
STARTCHAR cyr-Be
ENCODING 226
SWIDTH 1000 0
DWIDTH 10 0
BBX 11 10 0 0
BITMAP
1FC0
1800
3000
3000
3F80
6180
6180
6180
C300
FE00
ENDCHAR
STARTCHAR cyr-Tse
ENCODING 227
SWIDTH 917 0
DWIDTH 11 0
BBX 14 12 0 -2
BITMAP
0C18
1830
1830
1830
3060
3060
3060
60C0
60C0
7FE0
00C0
00C0
ENDCHAR
STARTCHAR cyr-De
ENCODING 228
SWIDTH 917 0
DWIDTH 11 0
BBX 13 12 0 -2
BITMAP
03F0
0660
0660
0660
0CC0
0CC0
0CC0
1980
3180
7FC0
C180
C180
ENDCHAR
STARTCHAR cyr-Ie
ENCODING 229
SWIDTH 1000 0
DWIDTH 10 0
BBX 11 10 0 0
BITMAP
1FE0
1800
3000
3000
3F80
6000
6000
6000
C000
FF00
ENDCHAR
STARTCHAR cyr-Ef
ENCODING 230
SWIDTH 1100 0
DWIDTH 11 0
BBX 13 10 0 0
BITMAP
07E0
0DB0
3330
3330
3330
6660
6660
36C0
3F00
0C00
ENDCHAR
STARTCHAR cyr-Ghe
ENCODING 231
SWIDTH 900 0
DWIDTH 9 0
BBX 10 10 0 0
BITMAP
1FC0
1800
3000
3000
3000
6000
6000
6000
C000
C000
ENDCHAR
STARTCHAR cyr-Kha
ENCODING 232
SWIDTH 900 0
DWIDTH 9 0
BBX 12 10 -1 0
BITMAP
1830
1830
18C0
0D80
0700
0E00
1B00
3180
C180
C180
ENDCHAR
STARTCHAR cyr-I
ENCODING 233
SWIDTH 1100 0
DWIDTH 11 0
BBX 12 10 0 0
BITMAP
1830
1830
3060
30E0
31E0
66C0
6CC0
78C0
E180
C180
ENDCHAR
STARTCHAR cyr-I-short
ENCODING 234
SWIDTH 917 0
DWIDTH 11 0
BBX 13 12 0 0
BITMAP
0360
0380
1830
1830
3060
30E0
31E0
66C0
6CC0
78C0
E180
C180
ENDCHAR
STARTCHAR cyr-Ka
ENCODING 235
SWIDTH 900 0
DWIDTH 9 0
BBX 11 10 0 0
BITMAP
18C0
1980
3600
3C00
3800
7800
6C00
6600
C600
C300
ENDCHAR
STARTCHAR cyr-El
ENCODING 236
SWIDTH 1300 0
DWIDTH 13 0
BBX 14 10 0 0
BITMAP
07FC
060C
0C18
0C18
0C18
1830
1830
1830
3060
E060
ENDCHAR
STARTCHAR cyr-Em
ENCODING 237
SWIDTH 1200 0
DWIDTH 12 0
BBX 13 10 0 0
BITMAP
1818
1818
3870
3870
3CF0
79E0
6F60
6F60
CCC0
CCC0
ENDCHAR
STARTCHAR cyr-En
ENCODING 238
SWIDTH 1100 0
DWIDTH 11 0
BBX 12 10 0 0
BITMAP
1830
1830
3060
3060
3FE0
60C0
60C0
60C0
C180
C180
ENDCHAR
STARTCHAR cyr-O
ENCODING 239
SWIDTH 1100 0
DWIDTH 11 0
BBX 12 10 0 0
BITMAP
07C0
0C60
3060
3060
3060
60C0
60C0
60C0
6300
3E00
ENDCHAR
STARTCHAR cyr-Pe
ENCODING 240
SWIDTH 1100 0
DWIDTH 11 0
BBX 12 10 0 0
BITMAP
1FF0
1830
3060
3060
3060
60C0
60C0
60C0
C180
C180
ENDCHAR
STARTCHAR cyr-Ya
ENCODING 241
SWIDTH 1100 0
DWIDTH 11 0
BBX 12 10 0 0
BITMAP
0FF0
1830
3060
3060
3060
3FC0
0CC0
18C0
6180
C180
ENDCHAR
STARTCHAR cyr-Er
ENCODING 242
SWIDTH 1000 0
DWIDTH 10 0
BBX 12 10 0 0
BITMAP
1FC0
1860
3060
3060
30C0
7F00
6000
6000
C000
C000
ENDCHAR
STARTCHAR cyr-Es
ENCODING 243
SWIDTH 1000 0
DWIDTH 10 0
BBX 12 10 0 0
BITMAP
07C0
0C60
3060
3000
3000
6000
6000
60C0
6300
3E00
ENDCHAR
STARTCHAR cyr-Te
ENCODING 244
SWIDTH 1000 0
DWIDTH 10 0
BBX 13 10 -1 0
BITMAP
1FF8
0180
0300
0300
0300
0600
0600
0600
0C00
0C00
ENDCHAR
STARTCHAR cyr-U
ENCODING 245
SWIDTH 1000 0
DWIDTH 10 0
BBX 13 10 -1 0
BITMAP
1818
1818
1860
0CC0
0780
0600
0600
0C00
3000
E000
ENDCHAR
STARTCHAR cyr-Zhe
ENCODING 246
SWIDTH 1400 0
DWIDTH 14 0
BBX 17 10 -1 0
BITMAP
0C6300
066600
06D800
03F000
01E000
07E000
0DB000
199800
631800
C30C00
ENDCHAR
STARTCHAR cyr-Ve
ENCODING 247
SWIDTH 1000 0
DWIDTH 10 0
BBX 11 10 0 0
BITMAP
1FC0
1860
30C0
30C0
3F80
6180
6180
6180
C300
FE00
ENDCHAR
STARTCHAR cyr-Ierik
ENCODING 248
SWIDTH 1100 0
DWIDTH 11 0
BBX 12 10 0 0
BITMAP
1800
1800
3000
3000
3FC0
60C0
60C0
60C0
C180
FF00
ENDCHAR
STARTCHAR cyr-Iery
ENCODING 249
SWIDTH 1300 0
DWIDTH 13 0
BBX 14 10 0 0
BITMAP
180C
180C
3018
3018
3FD8
60F0
60F0
60F0
C1E0
FF60
ENDCHAR
STARTCHAR cyr-Ze
ENCODING 250
SWIDTH 1000 0
DWIDTH 10 0
BBX 11 10 0 0
BITMAP
0FC0
1860
00C0
00C0
0780
0180
0180
0180
C300
7E00
ENDCHAR
STARTCHAR cyr-Sha
ENCODING 251
SWIDTH 1400 0
DWIDTH 14 0
BBX 15 10 0 0
BITMAP
18C6
18C6
318C
318C
318C
6318
6318
6318
C630
FFF0
ENDCHAR
STARTCHAR cyr-E-rev
ENCODING 252
SWIDTH 1100 0
DWIDTH 11 0
BBX 12 10 0 0
BITMAP
07C0
0C60
3060
0060
07E0
00C0
00C0
60C0
6300
3E00
ENDCHAR
STARTCHAR cyr-Shcha
ENCODING 253
SWIDTH 1167 0
DWIDTH 14 0
BBX 17 12 0 -2
BITMAP
0C6300
18C600
18C600
18C600
318C00
318C00
318C00
631800
631800
7FFC00
001800
001800
ENDCHAR
STARTCHAR cyr-Che
ENCODING 254
SWIDTH 1100 0
DWIDTH 11 0
BBX 12 10 0 0
BITMAP
1830
1830
3060
3060
1FE0
00C0
00C0
00C0
0180
0180
ENDCHAR
STARTCHAR cyr-Ier
ENCODING 255
SWIDTH 1200 0
DWIDTH 12 0
BBX 14 10 -1 0
BITMAP
1E00
0600
0C00
0C00
0FF0
1830
1830
1830
3060
3FC0
ENDCHAR
ENDFONT
